<?xml version="1.0" standalone="no"?>
<!DOCTYPE svg PUBLIC "-//W3C//DTD SVG 20010904//EN"
 "http://www.w3.org/TR/2001/REC-SVG-20010904/DTD/svg10.dtd">
<svg version="1.0" xmlns="http://www.w3.org/2000/svg"
 width="1876.000000pt" height="2000.000000pt" viewBox="0 0 1876.000000 2000.000000"
 preserveAspectRatio="xMidYMid meet">
<metadata>
Created by potrace 1.16, written by Peter Selinger 2001-2019
</metadata>
<g transform="translate(0.000000,2000.000000) scale(0.100000,-0.100000)"
fill="#000000" stroke="none">
<path d="M6803 13780 c-62 -13 -117 -44 -156 -90 -31 -36 -92 -172 -127 -283
-7 -21 -28 -54 -47 -73 -32 -32 -34 -38 -28 -75 5 -27 2 -46 -8 -62 -8 -12
-16 -45 -19 -74 -3 -28 -17 -76 -31 -106 -15 -30 -27 -63 -27 -75 0 -42 -172
-527 -196 -551 -18 -20 -32 -24 -71 -22 -55 2 -56 2 -72 58 -47 166 -264 210
-381 77 -54 -62 -59 -85 -60 -265 0 -287 -1 -313 -9 -349 -4 -20 -6 -42 -5
-50 2 -8 7 -28 10 -44 5 -20 1 -40 -11 -63 -15 -28 -16 -37 -6 -56 32 -60 -18
-127 -73 -98 -43 24 -56 9 -56 -63 0 -75 -8 -83 -80 -82 -42 1 -45 3 -48 29
-2 16 4 40 13 53 16 24 15 27 -2 40 -10 8 -28 16 -40 19 -68 15 -71 15 -76 -5
-3 -11 -1 -20 4 -20 5 0 9 -53 10 -117 0 -65 3 -112 6 -105 6 15 29 16 38 2
12 -20 -6 -52 -26 -47 -15 4 -19 0 -19 -22 0 -25 3 -27 29 -23 16 2 32 -1 35
-7 5 -8 12 -7 24 0 25 15 98 -6 127 -37 26 -28 42 -29 109 -9 27 8 55 15 61
15 9 0 14 -64 19 -232 l7 -233 -110 -330 c-60 -181 -289 -868 -510 -1525 -430
-1278 -539 -1604 -591 -1770 -18 -58 -37 -111 -42 -117 -8 -9 -24 -1 -64 32
-32 26 -61 42 -69 38 -24 -9 -17 -30 15 -43 16 -7 32 -21 35 -31 4 -12 19 -22
36 -26 16 -3 29 -7 29 -10 0 -8 -83 -248 -87 -253 -3 -3 -35 -5 -71 -5 -62 0
-67 -2 -70 -22 -3 -23 12 -31 23 -13 9 14 37 12 32 -2 -2 -7 -12 -13 -23 -13
-12 0 -20 -8 -22 -21 -6 -40 -86 -94 -138 -94 -14 0 -39 -7 -56 -16 l-31 -16
5 -89 c3 -49 10 -95 16 -101 5 -7 13 -27 17 -45 9 -44 39 -105 63 -126 17 -16
20 -16 25 -2 10 25 87 17 87 -10 0 -18 25 -26 60 -18 39 7 40 -14 4 -56 -23
-28 -24 -31 -7 -31 10 0 23 -4 29 -10 5 -5 45 -13 87 -16 43 -4 80 -11 83 -15
7 -12 171 -12 178 0 3 4 36 11 72 14 37 4 72 11 78 17 5 5 16 10 24 10 50 0
191 102 224 164 72 133 76 146 42 146 -9 0 -24 10 -34 22 -15 19 -20 20 -34 9
-19 -16 -46 -8 -46 15 0 9 8 23 18 30 16 13 16 14 -1 8 -13 -5 -36 12 -87 65
-39 39 -70 80 -70 90 0 10 -24 54 -53 97 l-53 80 33 83 c18 47 37 89 42 94 6
6 27 -1 61 -23 46 -30 53 -31 80 -20 43 18 45 25 16 63 l-26 34 16 69 c22 95
72 235 92 257 15 17 14 22 -13 71 l-29 54 33 88 c67 175 61 168 117 134 27
-17 36 -19 52 -9 15 10 18 22 15 76 -2 47 3 77 16 107 54 120 64 143 72 171 5
17 12 44 15 60 3 17 20 62 38 100 18 39 36 83 40 100 4 16 16 47 25 70 10 22
32 76 49 120 84 219 123 302 166 347 18 19 35 41 38 50 8 18 50 28 95 21 25
-4 35 -13 48 -42 9 -20 27 -54 40 -76 13 -22 24 -48 24 -57 2 -36 53 -173 82
-222 35 -57 66 -86 124 -118 50 -27 142 -29 179 -4 14 9 32 16 39 16 27 0 124
86 343 304 122 122 230 229 240 238 11 10 33 34 49 54 17 20 62 71 102 113 40
42 84 95 99 117 14 21 45 60 68 85 22 25 70 81 106 125 35 43 67 81 70 84 3 3
24 30 47 60 73 94 113 143 171 209 32 35 69 81 83 102 15 21 61 77 104 123 43
47 86 99 97 116 10 18 40 58 66 90 26 32 70 91 99 131 28 41 60 83 70 94 10
11 57 66 106 122 156 182 207 227 319 280 14 7 48 -37 48 -60 0 -29 -115 -387
-570 -1772 -138 -421 -207 -636 -214 -666 -14 -63 44 -157 110 -179 49 -16
149 -3 204 27 50 27 100 79 100 103 0 9 14 37 30 63 17 26 30 54 30 61 0 8 14
40 30 71 16 31 30 63 30 71 0 8 4 14 9 14 5 0 16 17 25 38 9 20 22 45 29 56
23 35 106 114 126 121 31 9 94 -29 142 -85 106 -126 255 -179 374 -134 22 8
49 18 60 21 11 4 65 32 120 64 59 34 137 69 190 85 85 26 94 26 165 15 41 -7
87 -21 102 -32 15 -10 33 -16 41 -13 8 3 27 -5 42 -18 l27 -23 -36 -79 c-82
-179 -72 -225 75 -350 53 -45 117 -70 178 -69 59 2 63 3 161 51 58 29 72 32
132 28 37 -2 71 -6 76 -10 5 -3 18 2 30 10 20 14 20 17 7 37 -7 12 -14 41 -13
65 0 35 4 43 23 48 13 3 31 5 41 4 36 -4 39 0 39 58 0 51 3 60 32 89 24 23 33
41 33 63 0 23 5 33 19 37 14 4 19 13 18 36 -1 36 6 68 23 112 7 17 20 63 31
102 11 40 26 90 35 110 32 76 119 239 157 298 58 88 100 149 106 155 4 3 17
25 30 50 13 25 49 83 79 129 84 127 120 246 101 329 -6 26 -3 42 14 70 27 45
28 123 3 171 -51 96 -158 136 -245 92 -51 -27 -72 -53 -223 -286 -71 -110
-133 -204 -137 -208 -13 -14 -59 14 -71 43 -16 39 -3 149 26 221 21 52 25 80
29 229 5 202 -1 226 -79 296 -79 72 -123 88 -241 89 -89 0 -106 -3 -155 -27
-30 -15 -78 -48 -107 -73 -71 -62 -90 -58 -115 25 -36 116 -150 201 -267 200
-81 -1 -186 -60 -307 -173 -46 -43 -88 -76 -93 -73 -30 19 -13 194 29 296 10
25 25 76 34 114 9 38 24 81 34 94 9 14 22 33 27 42 6 10 17 25 24 34 8 9 10
26 6 45 -4 20 0 44 14 75 12 25 21 50 21 56 0 6 16 44 35 85 19 41 36 85 39
97 2 13 15 48 29 78 13 30 32 80 42 110 20 64 70 192 120 305 19 44 35 90 35
102 0 12 5 25 10 28 6 3 10 14 10 23 0 9 6 29 14 43 7 15 23 53 34 85 24 68
55 148 70 184 6 14 25 63 42 110 17 47 42 112 55 145 40 101 69 212 80 305 3
25 8 53 11 63 3 10 1 24 -5 31 -6 7 -15 56 -20 108 -14 141 -56 209 -165 266
-42 22 -64 26 -121 26 -82 -1 -127 -17 -184 -69 -23 -21 -121 -158 -217 -304
-1068 -1615 -2349 -3379 -2912 -4009 l-38 -43 -26 21 c-14 11 -30 20 -35 20
-15 0 -43 57 -43 89 0 18 -6 47 -14 66 -8 18 -12 35 -10 37 2 3 0 29 -5 59 -5
30 -13 142 -17 249 -3 107 -8 211 -10 230 -9 88 -6 479 4 520 39 166 84 303
166 504 31 76 72 185 91 243 19 57 42 111 50 119 8 9 15 22 15 29 0 8 15 31
32 51 26 30 33 47 34 83 1 26 9 64 18 85 9 21 16 46 16 56 0 10 16 41 35 69
19 28 35 59 35 68 1 10 7 29 15 43 8 14 14 39 15 56 0 21 7 36 22 46 22 15 43
74 57 163 8 46 34 117 82 220 10 22 20 51 23 65 2 14 11 39 20 55 9 17 16 36
16 44 0 12 36 94 79 181 9 19 23 55 30 80 21 76 44 144 58 170 7 14 13 32 13
41 0 22 42 59 67 59 29 0 38 32 23 86 -14 49 -3 90 33 131 17 19 19 28 11 55
-5 18 -7 65 -4 103 3 42 0 90 -7 120 -7 28 -13 82 -13 120 -1 115 -51 202
-148 253 -64 33 -127 44 -189 32z m114 -111 c34 -13 80 -55 99 -91 34 -66 41
-45 -542 -1594 l-555 -1477 10 -386 c11 -392 13 -444 31 -791 18 -334 58 -670
80 -670 10 0 288 301 404 438 103 121 324 397 547 683 538 690 1608 2204 2283
3229 202 307 224 335 273 356 111 47 243 -37 243 -154 0 -30 -240 -673 -916
-2449 -504 -1324 -925 -2432 -936 -2461 -11 -28 -28 -57 -38 -62 -24 -13 -66
3 -74 28 -4 11 246 788 629 1957 350 1066 633 1940 631 1942 -2 3 -66 -78
-142 -179 -778 -1034 -1381 -1799 -1935 -2453 -305 -361 -507 -581 -762 -832
-223 -221 -237 -230 -277 -174 -11 16 -27 49 -35 72 -54 153 -117 680 -155
1294 -6 93 -13 171 -15 174 -5 5 77 223 -657 -1739 -347 -927 -635 -1691 -640
-1697 -13 -16 -60 -17 -76 -1 -7 7 -12 22 -12 34 0 12 303 925 674 2030 371
1105 676 2016 677 2024 2 8 -1 137 -5 285 -37 1369 -37 1375 -21 1408 19 41
62 67 108 67 27 0 45 -9 71 -34 l36 -33 0 -563 c0 -310 2 -561 5 -558 3 2 178
519 389 1148 212 629 393 1155 404 1169 43 59 132 86 199 60z m2671 -3013
c135 -70 111 -252 -39 -301 -204 -68 -488 -469 -655 -927 -78 -212 -121 -438
-100 -522 8 -34 18 -33 65 9 121 109 293 460 400 814 22 73 47 144 56 157 54
83 190 62 229 -36 15 -38 15 -49 -8 -188 -30 -182 -36 -232 -28 -232 4 0 38
53 76 118 38 64 116 193 174 287 l104 170 -5 62 c-7 90 9 219 35 288 33 87
115 168 192 190 120 35 257 -24 285 -123 17 -58 -1 -89 -120 -201 l-111 -106
11 -110 c13 -119 42 -238 96 -392 40 -115 92 -233 103 -233 14 1 336 476 441
653 75 125 96 147 137 147 38 0 70 -26 80 -64 5 -20 -12 -54 -79 -163 -127
-209 -206 -328 -366 -553 l-145 -205 -1 -115 c-1 -131 -18 -191 -88 -320 -48
-88 -169 -218 -275 -297 -81 -60 -227 -143 -254 -143 -30 0 -71 44 -71 77 0
62 130 292 316 555 152 216 144 200 129 242 -7 20 -32 71 -56 113 -53 97 -107
216 -156 345 -20 54 -41 99 -45 99 -16 0 -335 -555 -405 -704 -12 -26 -32 -54
-43 -62 -27 -19 -77 -19 -103 0 -30 21 -65 109 -71 179 -9 95 -15 98 -59 27
-220 -357 -309 -451 -428 -451 -60 0 -90 15 -121 60 -78 113 -44 410 96 823
117 342 258 617 424 823 147 181 289 259 383 210z"/>
<path d="M12635 13392 c-51 -24 -119 -98 -136 -148 -7 -21 -65 -259 -129 -529
l-117 -490 -44 -7 c-24 -4 -568 -51 -1209 -104 -1279 -105 -1220 -97 -1269
-169 -28 -42 -38 -118 -22 -167 15 -45 67 -94 112 -106 26 -7 246 2 780 33
1403 81 1539 88 1544 83 3 -3 -62 -291 -144 -639 -740 -3138 -733 -3106 -721
-3148 29 -109 142 -161 241 -111 45 24 73 63 93 135 15 49 222 814 756 2780
149 550 276 1004 281 1010 8 8 592 45 1879 119 151 9 421 25 600 36 179 11
528 31 775 45 248 14 563 32 700 40 138 9 320 17 405 18 164 4 200 12 265 61
78 60 114 197 81 310 -21 73 -100 158 -161 175 -50 14 -139 14 -202 1 -26 -5
-106 -14 -178 -19 -124 -9 -1233 -103 -1835 -156 -157 -14 -370 -32 -475 -40
-104 -8 -293 -24 -420 -35 -637 -56 -1308 -110 -1313 -106 -2 3 44 182 103
398 59 216 111 411 115 433 8 40 0 107 -19 157 -15 40 -79 107 -125 130 -58
30 -159 34 -211 10z"/>
<path d="M13146 11706 c-60 -22 -108 -67 -139 -126 -22 -46 -29 -78 -39 -186
-14 -158 -7 -194 54 -260 74 -80 179 -93 272 -34 40 26 52 43 100 142 80 166
88 205 61 294 -18 60 -73 127 -127 155 -53 27 -132 33 -182 15z"/>
<path d="M12916 10716 c-60 -23 -109 -67 -138 -126 -21 -44 -37 -117 -77 -355
-70 -417 -81 -500 -88 -657 -7 -163 6 -239 51 -307 42 -63 102 -94 178 -94
102 0 140 38 380 383 67 96 220 315 339 487 120 171 222 320 227 330 18 35 21
94 6 142 -25 84 -109 139 -200 128 -58 -6 -101 -41 -148 -118 -101 -166 -341
-520 -344 -507 -1 8 27 99 63 203 53 153 65 200 65 249 -1 137 -93 241 -224
252 -30 3 -67 -2 -90 -10z"/>
</g>
</svg>
